<mxfile host="app.diagrams.net" agent="Mozilla/5.0 (Windows NT 10.0; Win64; x64) AppleWebKit/537.36 (KHTML, like Gecko) Chrome/135.0.0.0 Safari/537.36" version="26.2.4">
  <diagram name="PÃ¡gina-1" id="GJnHMnFiagIKgAYqy6e-">
    <mxGraphModel dx="1526" dy="1137" grid="0" gridSize="10" guides="1" tooltips="1" connect="1" arrows="1" fold="1" page="0" pageScale="1" pageWidth="827" pageHeight="1169" math="0" shadow="0">
      <root>
        <mxCell id="0" />
        <mxCell id="1" parent="0" />
        <mxCell id="dvjeNHs4kYfI7mWwroyt-1" value="Produtos" style="swimlane;fontStyle=1;align=center;verticalAlign=top;childLayout=stackLayout;horizontal=1;startSize=26;horizontalStack=0;resizeParent=1;resizeParentMax=0;resizeLast=0;collapsible=1;marginBottom=0;whiteSpace=wrap;html=1;" vertex="1" parent="1">
          <mxGeometry x="360" y="17" width="160" height="154" as="geometry" />
        </mxCell>
        <mxCell id="dvjeNHs4kYfI7mWwroyt-2" value="+ nome: string&lt;div&gt;+ preco: float&lt;/div&gt;&lt;div&gt;+ validade: date&lt;/div&gt;&lt;div&gt;+ tipo: string&lt;/div&gt;" style="text;strokeColor=none;fillColor=none;align=left;verticalAlign=top;spacingLeft=4;spacingRight=4;overflow=hidden;rotatable=0;points=[[0,0.5],[1,0.5]];portConstraint=eastwest;whiteSpace=wrap;html=1;" vertex="1" parent="dvjeNHs4kYfI7mWwroyt-1">
          <mxGeometry y="26" width="160" height="69" as="geometry" />
        </mxCell>
        <mxCell id="dvjeNHs4kYfI7mWwroyt-3" value="" style="line;strokeWidth=1;fillColor=none;align=left;verticalAlign=middle;spacingTop=-1;spacingLeft=3;spacingRight=3;rotatable=0;labelPosition=right;points=[];portConstraint=eastwest;strokeColor=inherit;" vertex="1" parent="dvjeNHs4kYfI7mWwroyt-1">
          <mxGeometry y="95" width="160" height="8" as="geometry" />
        </mxCell>
        <mxCell id="dvjeNHs4kYfI7mWwroyt-4" value="+ calcularPreco(): float&lt;div&gt;+ estaVencido(): boolean&lt;/div&gt;" style="text;strokeColor=none;fillColor=none;align=left;verticalAlign=top;spacingLeft=4;spacingRight=4;overflow=hidden;rotatable=0;points=[[0,0.5],[1,0.5]];portConstraint=eastwest;whiteSpace=wrap;html=1;" vertex="1" parent="dvjeNHs4kYfI7mWwroyt-1">
          <mxGeometry y="103" width="160" height="51" as="geometry" />
        </mxCell>
        <mxCell id="dvjeNHs4kYfI7mWwroyt-6" value="Padaria" style="swimlane;fontStyle=1;align=center;verticalAlign=top;childLayout=stackLayout;horizontal=1;startSize=26;horizontalStack=0;resizeParent=1;resizeParentMax=0;resizeLast=0;collapsible=1;marginBottom=0;whiteSpace=wrap;html=1;" vertex="1" parent="1">
          <mxGeometry x="4" y="-26" width="203" height="163" as="geometry" />
        </mxCell>
        <mxCell id="dvjeNHs4kYfI7mWwroyt-7" value="+ nome: string&lt;div&gt;+ endereco: string&lt;/div&gt;&lt;div&gt;- cnpj: string&lt;/div&gt;" style="text;strokeColor=none;fillColor=none;align=left;verticalAlign=top;spacingLeft=4;spacingRight=4;overflow=hidden;rotatable=0;points=[[0,0.5],[1,0.5]];portConstraint=eastwest;whiteSpace=wrap;html=1;" vertex="1" parent="dvjeNHs4kYfI7mWwroyt-6">
          <mxGeometry y="26" width="203" height="58" as="geometry" />
        </mxCell>
        <mxCell id="dvjeNHs4kYfI7mWwroyt-8" value="" style="line;strokeWidth=1;fillColor=none;align=left;verticalAlign=middle;spacingTop=-1;spacingLeft=3;spacingRight=3;rotatable=0;labelPosition=right;points=[];portConstraint=eastwest;strokeColor=inherit;" vertex="1" parent="dvjeNHs4kYfI7mWwroyt-6">
          <mxGeometry y="84" width="203" height="8" as="geometry" />
        </mxCell>
        <mxCell id="dvjeNHs4kYfI7mWwroyt-9" value="&lt;div&gt;+ adicionarFuncionario(): void&lt;/div&gt;&lt;div&gt;+ adicionarProduto(): void&lt;/div&gt;&lt;div&gt;+ listarPedidos(): void&lt;/div&gt;" style="text;strokeColor=none;fillColor=none;align=left;verticalAlign=top;spacingLeft=4;spacingRight=4;overflow=hidden;rotatable=0;points=[[0,0.5],[1,0.5]];portConstraint=eastwest;whiteSpace=wrap;html=1;" vertex="1" parent="dvjeNHs4kYfI7mWwroyt-6">
          <mxGeometry y="92" width="203" height="71" as="geometry" />
        </mxCell>
        <mxCell id="dvjeNHs4kYfI7mWwroyt-10" value="Funcionario" style="swimlane;fontStyle=1;align=center;verticalAlign=top;childLayout=stackLayout;horizontal=1;startSize=26;horizontalStack=0;resizeParent=1;resizeParentMax=0;resizeLast=0;collapsible=1;marginBottom=0;whiteSpace=wrap;html=1;" vertex="1" parent="1">
          <mxGeometry x="-305" y="65" width="204" height="155" as="geometry" />
        </mxCell>
        <mxCell id="dvjeNHs4kYfI7mWwroyt-11" value="+ nome: string&lt;div&gt;+ cargo: string&lt;/div&gt;&lt;div&gt;- salario: float&lt;/div&gt;" style="text;strokeColor=none;fillColor=none;align=left;verticalAlign=top;spacingLeft=4;spacingRight=4;overflow=hidden;rotatable=0;points=[[0,0.5],[1,0.5]];portConstraint=eastwest;whiteSpace=wrap;html=1;" vertex="1" parent="dvjeNHs4kYfI7mWwroyt-10">
          <mxGeometry y="26" width="204" height="59" as="geometry" />
        </mxCell>
        <mxCell id="dvjeNHs4kYfI7mWwroyt-12" value="" style="line;strokeWidth=1;fillColor=none;align=left;verticalAlign=middle;spacingTop=-1;spacingLeft=3;spacingRight=3;rotatable=0;labelPosition=right;points=[];portConstraint=eastwest;strokeColor=inherit;" vertex="1" parent="dvjeNHs4kYfI7mWwroyt-10">
          <mxGeometry y="85" width="204" height="8" as="geometry" />
        </mxCell>
        <mxCell id="dvjeNHs4kYfI7mWwroyt-13" value="&lt;div&gt;+ registrarPedido(): void&lt;/div&gt;&lt;div&gt;+ calcularSalario(): Float&lt;/div&gt;" style="text;strokeColor=none;fillColor=none;align=left;verticalAlign=top;spacingLeft=4;spacingRight=4;overflow=hidden;rotatable=0;points=[[0,0.5],[1,0.5]];portConstraint=eastwest;whiteSpace=wrap;html=1;" vertex="1" parent="dvjeNHs4kYfI7mWwroyt-10">
          <mxGeometry y="93" width="204" height="62" as="geometry" />
        </mxCell>
        <mxCell id="dvjeNHs4kYfI7mWwroyt-32" style="edgeStyle=isometricEdgeStyle;rounded=0;orthogonalLoop=1;jettySize=auto;html=1;exitX=1;exitY=0.25;exitDx=0;exitDy=0;entryX=0;entryY=0.5;entryDx=0;entryDy=0;fontSize=12;startSize=8;endSize=8;endArrow=diamond;endFill=1;" edge="1" parent="1" source="dvjeNHs4kYfI7mWwroyt-14" target="dvjeNHs4kYfI7mWwroyt-4">
          <mxGeometry relative="1" as="geometry">
            <Array as="points" />
          </mxGeometry>
        </mxCell>
        <mxCell id="dvjeNHs4kYfI7mWwroyt-14" value="Pedido" style="swimlane;fontStyle=1;align=center;verticalAlign=top;childLayout=stackLayout;horizontal=1;startSize=26;horizontalStack=0;resizeParent=1;resizeParentMax=0;resizeLast=0;collapsible=1;marginBottom=0;whiteSpace=wrap;html=1;" vertex="1" parent="1">
          <mxGeometry x="-190" y="293" width="182" height="180" as="geometry" />
        </mxCell>
        <mxCell id="dvjeNHs4kYfI7mWwroyt-15" value="+ numero: int&lt;div&gt;+ data: date&lt;/div&gt;&lt;div&gt;+ totalPedidos: float&lt;/div&gt;&lt;div&gt;+ valorPedido: float&lt;/div&gt;" style="text;strokeColor=none;fillColor=none;align=left;verticalAlign=top;spacingLeft=4;spacingRight=4;overflow=hidden;rotatable=0;points=[[0,0.5],[1,0.5]];portConstraint=eastwest;whiteSpace=wrap;html=1;" vertex="1" parent="dvjeNHs4kYfI7mWwroyt-14">
          <mxGeometry y="26" width="182" height="72" as="geometry" />
        </mxCell>
        <mxCell id="dvjeNHs4kYfI7mWwroyt-16" value="" style="line;strokeWidth=1;fillColor=none;align=left;verticalAlign=middle;spacingTop=-1;spacingLeft=3;spacingRight=3;rotatable=0;labelPosition=right;points=[];portConstraint=eastwest;strokeColor=inherit;" vertex="1" parent="dvjeNHs4kYfI7mWwroyt-14">
          <mxGeometry y="98" width="182" height="8" as="geometry" />
        </mxCell>
        <mxCell id="dvjeNHs4kYfI7mWwroyt-17" value="&lt;div&gt;+ adicionarProduto(): void&lt;/div&gt;&lt;div&gt;+ retirarProduto(): void&lt;/div&gt;&lt;div&gt;+ calcularTotal(): float&lt;/div&gt;&lt;div&gt;+ gerarRecibo(): string&lt;/div&gt;" style="text;strokeColor=none;fillColor=none;align=left;verticalAlign=top;spacingLeft=4;spacingRight=4;overflow=hidden;rotatable=0;points=[[0,0.5],[1,0.5]];portConstraint=eastwest;whiteSpace=wrap;html=1;" vertex="1" parent="dvjeNHs4kYfI7mWwroyt-14">
          <mxGeometry y="106" width="182" height="74" as="geometry" />
        </mxCell>
        <mxCell id="dvjeNHs4kYfI7mWwroyt-18" value="Cliente" style="swimlane;fontStyle=1;align=center;verticalAlign=top;childLayout=stackLayout;horizontal=1;startSize=26;horizontalStack=0;resizeParent=1;resizeParentMax=0;resizeLast=0;collapsible=1;marginBottom=0;whiteSpace=wrap;html=1;" vertex="1" parent="1">
          <mxGeometry x="120" y="353" width="195" height="148" as="geometry" />
        </mxCell>
        <mxCell id="dvjeNHs4kYfI7mWwroyt-19" value="+ nome: string&lt;div&gt;+ cpf: string&lt;/div&gt;&lt;div&gt;+telefone: string&lt;/div&gt;" style="text;strokeColor=none;fillColor=none;align=left;verticalAlign=top;spacingLeft=4;spacingRight=4;overflow=hidden;rotatable=0;points=[[0,0.5],[1,0.5]];portConstraint=eastwest;whiteSpace=wrap;html=1;" vertex="1" parent="dvjeNHs4kYfI7mWwroyt-18">
          <mxGeometry y="26" width="195" height="72" as="geometry" />
        </mxCell>
        <mxCell id="dvjeNHs4kYfI7mWwroyt-20" value="" style="line;strokeWidth=1;fillColor=none;align=left;verticalAlign=middle;spacingTop=-1;spacingLeft=3;spacingRight=3;rotatable=0;labelPosition=right;points=[];portConstraint=eastwest;strokeColor=inherit;" vertex="1" parent="dvjeNHs4kYfI7mWwroyt-18">
          <mxGeometry y="98" width="195" height="8" as="geometry" />
        </mxCell>
        <mxCell id="dvjeNHs4kYfI7mWwroyt-21" value="&lt;div&gt;+ realizarPedido(): void&lt;/div&gt;&lt;div&gt;+ pedidosRealizados(): void&lt;/div&gt;" style="text;strokeColor=none;fillColor=none;align=left;verticalAlign=top;spacingLeft=4;spacingRight=4;overflow=hidden;rotatable=0;points=[[0,0.5],[1,0.5]];portConstraint=eastwest;whiteSpace=wrap;html=1;" vertex="1" parent="dvjeNHs4kYfI7mWwroyt-18">
          <mxGeometry y="106" width="195" height="42" as="geometry" />
        </mxCell>
        <mxCell id="dvjeNHs4kYfI7mWwroyt-23" style="edgeStyle=orthogonalEdgeStyle;rounded=0;orthogonalLoop=1;jettySize=auto;html=1;exitX=0;exitY=0.5;exitDx=0;exitDy=0;entryX=0.5;entryY=0;entryDx=0;entryDy=0;fontSize=12;startSize=8;endSize=8;endArrow=open;endFill=0;startArrow=open;startFill=0;" edge="1" parent="1" source="dvjeNHs4kYfI7mWwroyt-7" target="dvjeNHs4kYfI7mWwroyt-10">
          <mxGeometry relative="1" as="geometry">
            <Array as="points">
              <mxPoint x="-203" y="29" />
            </Array>
          </mxGeometry>
        </mxCell>
        <mxCell id="dvjeNHs4kYfI7mWwroyt-24" style="edgeStyle=orthogonalEdgeStyle;rounded=0;orthogonalLoop=1;jettySize=auto;html=1;exitX=1;exitY=0.5;exitDx=0;exitDy=0;entryX=0;entryY=0.5;entryDx=0;entryDy=0;fontSize=12;startSize=8;endSize=8;endArrow=diamond;endFill=0;" edge="1" parent="1" source="dvjeNHs4kYfI7mWwroyt-7" target="dvjeNHs4kYfI7mWwroyt-2">
          <mxGeometry relative="1" as="geometry" />
        </mxCell>
        <mxCell id="dvjeNHs4kYfI7mWwroyt-27" style="rounded=0;orthogonalLoop=1;jettySize=auto;html=1;exitX=1;exitY=0.5;exitDx=0;exitDy=0;entryX=0;entryY=0.5;entryDx=0;entryDy=0;fontSize=12;startSize=8;endSize=8;endArrow=open;endFill=0;edgeStyle=orthogonalEdgeStyle;startArrow=open;startFill=0;" edge="1" parent="1" source="dvjeNHs4kYfI7mWwroyt-15" target="dvjeNHs4kYfI7mWwroyt-19">
          <mxGeometry relative="1" as="geometry" />
        </mxCell>
        <mxCell id="dvjeNHs4kYfI7mWwroyt-28" style="edgeStyle=orthogonalEdgeStyle;rounded=0;orthogonalLoop=1;jettySize=auto;html=1;exitX=0;exitY=0.25;exitDx=0;exitDy=0;entryX=0.419;entryY=1.014;entryDx=0;entryDy=0;entryPerimeter=0;fontSize=12;startSize=8;endSize=8;endArrow=open;endFill=0;" edge="1" parent="1" source="dvjeNHs4kYfI7mWwroyt-14" target="dvjeNHs4kYfI7mWwroyt-13">
          <mxGeometry relative="1" as="geometry" />
        </mxCell>
        <mxCell id="dvjeNHs4kYfI7mWwroyt-30" style="edgeStyle=orthogonalEdgeStyle;rounded=0;orthogonalLoop=1;jettySize=auto;html=1;exitX=0;exitY=0.5;exitDx=0;exitDy=0;entryX=0.5;entryY=0;entryDx=0;entryDy=0;fontSize=12;startSize=8;endSize=8;endArrow=open;endFill=0;" edge="1" parent="1" source="dvjeNHs4kYfI7mWwroyt-9" target="dvjeNHs4kYfI7mWwroyt-14">
          <mxGeometry relative="1" as="geometry">
            <Array as="points">
              <mxPoint x="-55" y="102" />
              <mxPoint x="-55" y="258" />
              <mxPoint x="-99" y="258" />
            </Array>
          </mxGeometry>
        </mxCell>
      </root>
    </mxGraphModel>
  </diagram>
</mxfile>
